# xmcd
#
# Track frame offsets:
#	150
#	15232
#	27205
#	40450
#	52372
#	68340
#	82220
#	98480
#	111212
#	123127
#	138675
#	151255
#	164370
#	178535
#	192512
#	203190
#	216692
#	230472
#	242780
#	257290
#	271115
#	286322
#	300197
#	313632
#	327887
#
# Disc length: 4538 seconds
#
# Revision: 3
# Processed by: cddbd v1.4b41PL2 Copyright (c) Steve Scherf et al.
# Submitted via: CDmax 1.7.6
#
DISCID=5b11b819
DTITLE=Jimmie Davis - Nobody's Darlin' But Mine, Volume #1
DYEAR=1900
DGENRE=
TTITLE0=Barroom Message
TTITLE1=Baby's Lullaby
TTITLE2=Out of Town Blues
TTITLE3=Home Town Blues
TTITLE4=Settling Down for Life
TTITLE5=My Dixie Sweetheart
TTITLE6=You're the Picture of Your Mother
TTITLE7=Doggone That Train
TTITLE8=My Louisian Girl
TTITLE9=Cowboy's Home Sweet Home
TTITLE10=She's a Hum-Dum Dinger
TTITLE11=Before You Say Farewell
TTITLE12=Where the Old Red River Flows
TTITLE13=Penitentiary Blues
TTITLE14=Arabella Blues
TTITLE15=In Arkansas
TTITLE16=Lonely Hobo
TTITLE17=I'll Be Happy Today
TTITLE18=Woman's BLues
TTITLE19=Bear Cat Mama from Horner's Corners
TTITLE20=My Arkansas Sweetheart
TTITLE21=Ramona
TTITLE22=You'd Rather Forget Than Forgive
TTITLE23=Thinking of Me Thinking of You
TTITLE24=Way Out On the Mountain
EXTD=
EXTT0=
EXTT1=
EXTT2=
EXTT3=
EXTT4=
EXTT5=
EXTT6=
EXTT7=
EXTT8=
EXTT9=
EXTT10=
EXTT11=
EXTT12=
EXTT13=
EXTT14=
EXTT15=
EXTT16=
EXTT17=
EXTT18=
EXTT19=
EXTT20=
EXTT21=
EXTT22=
EXTT23=
EXTT24=
PLAYORDER=
